<svg width="233" height="152" viewBox="0 0 233 152" fill="none" xmlns="http://www.w3.org/2000/svg">
<path d="M25.8906 82L20.7344 145.844L0.953125 146.875V83.3125L25.8906 82ZM107.031 143.969L83.7812 146.969L80.9688 136.375H70.2812L67.9375 146.969L44.0312 144.625L62.6875 82.1875L88.75 80.875L107.031 143.969ZM79.2812 122.031L75.7188 105.719L72.25 122.031H79.2812ZM180.484 79.6562L176.172 148.469L154.797 149.406L154.984 113.125L145.328 142.375H137.078L129.672 116.219L129.578 146.594L107.922 147.25L108.859 82.4688L132.953 81.5312L142.516 112.562L155.266 79.6562H180.484ZM211.891 129.719H196.047C195.828 126.406 196.016 123.641 196.609 121.422C197.203 119.172 198 117.312 199 115.844C200.031 114.344 201.172 113.141 202.422 112.234C203.703 111.297 204.938 110.5 206.125 109.844C207.344 109.156 208.406 108.5 209.312 107.875C210.25 107.25 210.891 106.469 211.234 105.531C211.453 104.969 211.516 104.328 211.422 103.609C211.328 102.859 211 102.156 210.438 101.5C209.906 100.844 209.094 100.297 208 99.8594C206.938 99.3906 205.547 99.1562 203.828 99.1562C202.703 99.1562 201.359 99.2656 199.797 99.4844C198.266 99.6719 196.656 99.9844 194.969 100.422C193.281 100.828 191.609 101.344 189.953 101.969C188.328 102.562 186.859 103.25 185.547 104.031L183.484 85.6562C184.641 84.9688 185.938 84.2656 187.375 83.5469C188.844 82.7969 190.453 82.1406 192.203 81.5781C193.953 80.9844 195.859 80.5 197.922 80.125C199.984 79.75 202.203 79.5625 204.578 79.5625C208.422 79.5625 212.047 80.0938 215.453 81.1562C218.891 82.2188 221.891 83.7812 224.453 85.8438C227.016 87.9062 229.047 90.4531 230.547 93.4844C232.047 96.4844 232.797 99.9375 232.797 103.844C232.797 106.812 232.375 109.203 231.531 111.016C230.688 112.797 229.609 114.266 228.297 115.422C226.984 116.578 225.516 117.547 223.891 118.328C222.266 119.109 220.672 119.969 219.109 120.906C217.578 121.812 216.156 122.938 214.844 124.281C213.562 125.625 212.578 127.438 211.891 129.719ZM214.234 142.094C214.234 143.469 213.969 144.75 213.438 145.938C212.906 147.125 212.188 148.156 211.281 149.031C210.406 149.938 209.375 150.641 208.188 151.141C207 151.672 205.734 151.938 204.391 151.938C203.016 151.938 201.734 151.672 200.547 151.141C199.359 150.641 198.312 149.938 197.406 149.031C196.531 148.156 195.828 147.125 195.297 145.938C194.797 144.75 194.547 143.469 194.547 142.094C194.547 140.75 194.797 139.469 195.297 138.25C195.828 137.031 196.531 135.984 197.406 135.109C198.312 134.203 199.359 133.484 200.547 132.953C201.734 132.422 203.016 132.156 204.391 132.156C205.734 132.156 207 132.422 208.188 132.953C209.375 133.484 210.406 134.203 211.281 135.109C212.188 135.984 212.906 137.031 213.438 138.25C213.969 139.469 214.234 140.75 214.234 142.094Z" fill="white"/>
<path d="M100.031 2.9375L89.0625 67.9062L62.4375 68.4688L56.7188 34.8125L51 66.0312L24.375 66.9688L13.3125 2.9375L36.5625 0.875L41.25 39.7812L47.5312 0.875H65.8125L73.125 40.25L76.875 0.875L100.031 2.9375ZM157.641 68L134.203 69.125L134.016 47.4688H123.234L122.578 68H101.578L103.359 2.09375L125.672 3.125L124.266 36.7812H134.672L134.766 0.59375L156.141 1.15625L157.641 68ZM220.031 34.9062C220.031 37.75 219.703 40.5 219.047 43.1562C218.391 45.7812 217.438 48.25 216.188 50.5625C214.969 52.875 213.469 55 211.688 56.9375C209.938 58.8438 207.953 60.4844 205.734 61.8594C203.547 63.2344 201.156 64.3125 198.562 65.0938C195.969 65.8438 193.219 66.2188 190.312 66.2188C187.5 66.2188 184.812 65.8594 182.25 65.1406C179.719 64.4219 177.344 63.4219 175.125 62.1406C172.906 60.8281 170.891 59.2656 169.078 57.4531C167.297 55.6094 165.766 53.5781 164.484 51.3594C163.234 49.1094 162.25 46.7031 161.531 44.1406C160.844 41.5781 160.5 38.9062 160.5 36.125C160.5 33.4062 160.828 30.75 161.484 28.1562C162.141 25.5312 163.078 23.0625 164.297 20.75C165.547 18.4375 167.047 16.3125 168.797 14.375C170.547 12.4375 172.5 10.7656 174.656 9.35938C176.844 7.95312 179.203 6.85938 181.734 6.07812C184.266 5.29687 186.938 4.90625 189.75 4.90625C194.281 4.90625 198.406 5.60938 202.125 7.01562C205.875 8.42188 209.062 10.4375 211.688 13.0625C214.344 15.6562 216.391 18.8125 217.828 22.5312C219.297 26.2188 220.031 30.3438 220.031 34.9062ZM199.219 36.125C199.219 34.7812 199.016 33.4844 198.609 32.2344C198.234 30.9531 197.672 29.8281 196.922 28.8594C196.172 27.8594 195.234 27.0625 194.109 26.4688C193.016 25.8438 191.75 25.5312 190.312 25.5312C188.844 25.5312 187.531 25.7969 186.375 26.3281C185.219 26.8594 184.219 27.5938 183.375 28.5312C182.562 29.4375 181.938 30.5156 181.5 31.7656C181.062 32.9844 180.844 34.2812 180.844 35.6562C180.844 36.9688 181.031 38.2812 181.406 39.5938C181.781 40.9062 182.344 42.0938 183.094 43.1562C183.844 44.2188 184.766 45.0781 185.859 45.7344C186.984 46.3906 188.281 46.7188 189.75 46.7188C191.219 46.7188 192.531 46.4375 193.688 45.875C194.875 45.2812 195.875 44.5 196.688 43.5312C197.5 42.5312 198.125 41.3906 198.562 40.1094C199 38.8281 199.219 37.5 199.219 36.125Z" fill="white"/>
</svg>
